<svg width="250" height="71" viewBox="0 0 250 71" fill="none" xmlns="http://www.w3.org/2000/svg">
<rect width="250" height="71" rx="12" fill="#111827"/>
<path d="M52.2317 53.095C50.1492 55.1138 47.8755 54.795 45.6867 53.8387C43.3705 52.8612 41.2455 52.8187 38.8017 53.8387C35.7417 55.1562 34.1267 54.7738 32.2992 53.095C21.9292 42.4063 23.4592 26.1287 35.2317 25.5337C38.1005 25.6825 40.098 27.1062 41.7767 27.2337C44.2842 26.7237 46.6855 25.2575 49.363 25.4487C52.5717 25.7037 54.9942 26.9787 56.588 29.2737C49.958 33.2475 51.5305 41.9813 57.608 44.425C56.3967 47.6125 54.8242 50.7788 52.2105 53.1163L52.2317 53.095ZM41.5642 25.4062C41.2455 20.6675 45.0917 16.7575 49.5117 16.375C50.128 21.8575 44.5392 25.9375 41.5642 25.4062Z" fill="white"/>
<path d="M92.496 27V14.335H96.661C97.919 14.335 99.0127 14.5957 99.942 15.117C100.871 15.627 101.591 16.358 102.101 17.31C102.611 18.2507 102.866 19.367 102.866 20.659C102.866 21.9397 102.611 23.056 102.101 24.008C101.591 24.96 100.871 25.6967 99.942 26.218C99.0127 26.7393 97.919 27 96.661 27H92.496ZM93.856 25.725H96.661C97.6357 25.725 98.48 25.521 99.194 25.113C99.908 24.6937 100.458 24.1043 100.843 23.345C101.24 22.5857 101.438 21.6903 101.438 20.659C101.438 19.6277 101.24 18.738 100.843 17.99C100.446 17.2307 99.891 16.647 99.177 16.239C98.463 15.8197 97.6243 15.61 96.661 15.61H93.856V25.725ZM109.193 27.204C108.332 27.204 107.55 27 106.847 26.592C106.145 26.1727 105.584 25.606 105.164 24.892C104.756 24.1667 104.552 23.345 104.552 22.427C104.552 21.5203 104.756 20.71 105.164 19.996C105.572 19.282 106.122 18.721 106.813 18.313C107.516 17.8937 108.309 17.684 109.193 17.684C110.077 17.684 110.865 17.888 111.556 18.296C112.259 18.704 112.809 19.265 113.205 19.979C113.613 20.693 113.817 21.509 113.817 22.427C113.817 23.3563 113.608 24.1837 113.188 24.909C112.769 25.623 112.208 26.184 111.505 26.592C110.814 27 110.043 27.204 109.193 27.204ZM109.193 25.929C109.805 25.929 110.355 25.776 110.842 25.47C111.341 25.164 111.732 24.7447 112.015 24.212C112.31 23.6793 112.457 23.0843 112.457 22.427C112.457 21.7697 112.31 21.1803 112.015 20.659C111.732 20.1377 111.341 19.724 110.842 19.418C110.355 19.112 109.805 18.959 109.193 18.959C108.581 18.959 108.026 19.112 107.527 19.418C107.04 19.724 106.649 20.1377 106.354 20.659C106.06 21.1803 105.912 21.7697 105.912 22.427C105.912 23.0843 106.06 23.6793 106.354 24.212C106.649 24.7447 107.04 25.164 107.527 25.47C108.026 25.776 108.581 25.929 109.193 25.929ZM117.906 27L114.778 17.888H116.223L118.807 25.861H118.297L120.728 17.888H122.003L124.434 25.861H123.924L126.525 17.888H127.953L124.825 27H123.55L121.187 19.197H121.544L119.181 27H117.906ZM129.447 27V17.888H130.722V19.656L130.433 19.588C130.659 18.9987 131.028 18.534 131.538 18.194C132.059 17.854 132.66 17.684 133.34 17.684C133.986 17.684 134.564 17.8313 135.074 18.126C135.595 18.4207 136.003 18.8287 136.298 19.35C136.604 19.86 136.757 20.438 136.757 21.084V27H135.482V21.577C135.482 21.0217 135.38 20.5513 135.176 20.166C134.983 19.7807 134.705 19.486 134.343 19.282C133.991 19.0667 133.583 18.959 133.119 18.959C132.654 18.959 132.24 19.0667 131.878 19.282C131.515 19.486 131.232 19.7863 131.028 20.183C130.824 20.5683 130.722 21.033 130.722 21.577V27H129.447ZM139.192 27V14.131H140.467V27H139.192ZM147.344 27.204C146.482 27.204 145.7 27 144.998 26.592C144.295 26.1727 143.734 25.606 143.315 24.892C142.907 24.1667 142.703 23.345 142.703 22.427C142.703 21.5203 142.907 20.71 143.315 19.996C143.723 19.282 144.272 18.721 144.964 18.313C145.666 17.8937 146.46 17.684 147.344 17.684C148.228 17.684 149.015 17.888 149.707 18.296C150.409 18.704 150.959 19.265 151.356 19.979C151.764 20.693 151.968 21.509 151.968 22.427C151.968 23.3563 151.758 24.1837 151.339 24.909C150.919 25.623 150.358 26.184 149.656 26.592C148.964 27 148.194 27.204 147.344 27.204ZM147.344 25.929C147.956 25.929 148.505 25.776 148.993 25.47C149.491 25.164 149.882 24.7447 150.166 24.212C150.46 23.6793 150.608 23.0843 150.608 22.427C150.608 21.7697 150.46 21.1803 150.166 20.659C149.882 20.1377 149.491 19.724 148.993 19.418C148.505 19.112 147.956 18.959 147.344 18.959C146.732 18.959 146.176 19.112 145.678 19.418C145.19 19.724 144.799 20.1377 144.505 20.659C144.21 21.1803 144.063 21.7697 144.063 22.427C144.063 23.0843 144.21 23.6793 144.505 24.212C144.799 24.7447 145.19 25.164 145.678 25.47C146.176 25.776 146.732 25.929 147.344 25.929ZM156.851 27.204C156.273 27.204 155.758 27.0963 155.304 26.881C154.851 26.6543 154.494 26.3483 154.233 25.963C153.973 25.5777 153.842 25.1357 153.842 24.637C153.842 24.161 153.944 23.7303 154.148 23.345C154.352 22.9483 154.67 22.614 155.1 22.342C155.531 22.07 156.081 21.8773 156.749 21.764L160.319 21.169V22.325L157.055 22.869C156.398 22.9823 155.922 23.192 155.627 23.498C155.344 23.804 155.202 24.1667 155.202 24.586C155.202 24.994 155.361 25.3397 155.678 25.623C156.007 25.9063 156.426 26.048 156.936 26.048C157.56 26.048 158.104 25.9177 158.568 25.657C159.033 25.385 159.396 25.0223 159.656 24.569C159.917 24.1157 160.047 23.6113 160.047 23.056V20.744C160.047 20.2 159.849 19.758 159.452 19.418C159.056 19.078 158.54 18.908 157.905 18.908C157.35 18.908 156.863 19.0497 156.443 19.333C156.024 19.605 155.712 19.962 155.508 20.404L154.352 19.775C154.522 19.3897 154.789 19.0383 155.151 18.721C155.525 18.4037 155.95 18.1543 156.426 17.973C156.902 17.7803 157.395 17.684 157.905 17.684C158.574 17.684 159.163 17.8143 159.673 18.075C160.195 18.3357 160.597 18.6983 160.88 19.163C161.175 19.6163 161.322 20.1433 161.322 20.744V27H160.047V25.181L160.234 25.368C160.076 25.708 159.826 26.0197 159.486 26.303C159.158 26.575 158.767 26.796 158.313 26.966C157.871 27.1247 157.384 27.204 156.851 27.204ZM168.059 27.204C167.209 27.204 166.444 27 165.764 26.592C165.084 26.1727 164.545 25.606 164.149 24.892C163.763 24.1667 163.571 23.3507 163.571 22.444C163.571 21.526 163.763 20.71 164.149 19.996C164.545 19.282 165.078 18.721 165.747 18.313C166.427 17.8937 167.197 17.684 168.059 17.684C168.841 17.684 169.538 17.854 170.15 18.194C170.762 18.534 171.243 18.993 171.595 19.571L171.391 19.928V14.131H172.666V27H171.391V24.96L171.595 25.147C171.277 25.8043 170.801 26.3143 170.167 26.677C169.543 27.0283 168.841 27.204 168.059 27.204ZM168.127 25.929C168.739 25.929 169.288 25.776 169.776 25.47C170.274 25.164 170.665 24.7503 170.949 24.229C171.243 23.6963 171.391 23.1013 171.391 22.444C171.391 21.7867 171.243 21.1973 170.949 20.676C170.665 20.1433 170.274 19.724 169.776 19.418C169.288 19.112 168.739 18.959 168.127 18.959C167.526 18.959 166.982 19.112 166.495 19.418C166.007 19.724 165.622 20.1377 165.339 20.659C165.067 21.1803 164.931 21.7753 164.931 22.444C164.931 23.1013 165.067 23.6963 165.339 24.229C165.622 24.7503 166.002 25.164 166.478 25.47C166.965 25.776 167.515 25.929 168.127 25.929ZM182.439 27.204C181.578 27.204 180.796 27 180.093 26.592C179.391 26.1727 178.83 25.606 178.41 24.892C178.002 24.1667 177.798 23.345 177.798 22.427C177.798 21.5203 178.002 20.71 178.41 19.996C178.818 19.282 179.368 18.721 180.059 18.313C180.762 17.8937 181.555 17.684 182.439 17.684C183.323 17.684 184.111 17.888 184.802 18.296C185.505 18.704 186.055 19.265 186.451 19.979C186.859 20.693 187.063 21.509 187.063 22.427C187.063 23.3563 186.854 24.1837 186.434 24.909C186.015 25.623 185.454 26.184 184.751 26.592C184.06 27 183.289 27.204 182.439 27.204ZM182.439 25.929C183.051 25.929 183.601 25.776 184.088 25.47C184.587 25.164 184.978 24.7447 185.261 24.212C185.556 23.6793 185.703 23.0843 185.703 22.427C185.703 21.7697 185.556 21.1803 185.261 20.659C184.978 20.1377 184.587 19.724 184.088 19.418C183.601 19.112 183.051 18.959 182.439 18.959C181.827 18.959 181.272 19.112 180.773 19.418C180.286 19.724 179.895 20.1377 179.6 20.659C179.306 21.1803 179.158 21.7697 179.158 22.427C179.158 23.0843 179.306 23.6793 179.6 24.212C179.895 24.7447 180.286 25.164 180.773 25.47C181.272 25.776 181.827 25.929 182.439 25.929ZM189.312 27V17.888H190.587V19.656L190.298 19.588C190.525 18.9987 190.893 18.534 191.403 18.194C191.924 17.854 192.525 17.684 193.205 17.684C193.851 17.684 194.429 17.8313 194.939 18.126C195.46 18.4207 195.868 18.8287 196.163 19.35C196.469 19.86 196.622 20.438 196.622 21.084V27H195.347V21.577C195.347 21.0217 195.245 20.5513 195.041 20.166C194.848 19.7807 194.571 19.486 194.208 19.282C193.857 19.0667 193.449 18.959 192.984 18.959C192.519 18.959 192.106 19.0667 191.743 19.282C191.38 19.486 191.097 19.7863 190.893 20.183C190.689 20.5683 190.587 21.033 190.587 21.577V27H189.312ZM205.431 27.102C204.615 27.102 203.986 26.864 203.544 26.388C203.102 25.912 202.881 25.232 202.881 24.348V19.163H201.198V17.888H201.623C202.008 17.888 202.314 17.7633 202.541 17.514C202.767 17.2533 202.881 16.9303 202.881 16.545V15.78H204.156V17.888H206.162V19.163H204.156V24.348C204.156 24.654 204.201 24.926 204.292 25.164C204.382 25.3907 204.535 25.572 204.751 25.708C204.977 25.844 205.278 25.912 205.652 25.912C205.742 25.912 205.85 25.9063 205.975 25.895C206.099 25.8837 206.207 25.8723 206.298 25.861V27C206.162 27.034 206.009 27.0567 205.839 27.068C205.669 27.0907 205.533 27.102 205.431 27.102ZM208.537 27V14.131H209.812V19.656L209.523 19.588C209.749 18.9987 210.118 18.534 210.628 18.194C211.149 17.854 211.75 17.684 212.43 17.684C213.076 17.684 213.654 17.8313 214.164 18.126C214.685 18.4207 215.093 18.8287 215.388 19.35C215.694 19.86 215.847 20.438 215.847 21.084V27H214.572V21.577C214.572 21.0217 214.47 20.5513 214.266 20.166C214.062 19.7807 213.778 19.486 213.416 19.282C213.064 19.0667 212.662 18.959 212.209 18.959C211.755 18.959 211.347 19.0667 210.985 19.282C210.622 19.486 210.333 19.7863 210.118 20.183C209.914 20.5683 209.812 21.033 209.812 21.577V27H208.537ZM222.43 27.204C221.58 27.204 220.809 27 220.118 26.592C219.438 26.1727 218.899 25.6003 218.503 24.875C218.106 24.1497 217.908 23.328 217.908 22.41C217.908 21.492 218.1 20.6817 218.486 19.979C218.871 19.265 219.392 18.704 220.05 18.296C220.718 17.888 221.466 17.684 222.294 17.684C222.951 17.684 223.535 17.8087 224.045 18.058C224.566 18.296 225.008 18.6247 225.371 19.044C225.733 19.452 226.011 19.9167 226.204 20.438C226.396 20.948 226.493 21.475 226.493 22.019C226.493 22.1323 226.487 22.2627 226.476 22.41C226.464 22.546 226.447 22.6877 226.425 22.835H218.724V21.645H225.694L225.082 22.155C225.184 21.5317 225.11 20.9763 224.861 20.489C224.623 19.9903 224.277 19.5993 223.824 19.316C223.37 19.0213 222.86 18.874 222.294 18.874C221.727 18.874 221.2 19.0213 220.713 19.316C220.237 19.6107 219.863 20.0243 219.591 20.557C219.319 21.0783 219.211 21.7017 219.268 22.427C219.211 23.1523 219.324 23.787 219.608 24.331C219.902 24.8637 220.299 25.2773 220.798 25.572C221.308 25.8667 221.852 26.014 222.43 26.014C223.098 26.014 223.659 25.8553 224.113 25.538C224.566 25.2207 224.934 24.824 225.218 24.348L226.306 24.926C226.124 25.334 225.847 25.7137 225.473 26.065C225.099 26.405 224.651 26.6827 224.13 26.898C223.62 27.102 223.053 27.204 222.43 27.204Z" fill="white"/>
<path d="M91.264 56L97.552 38.12H101.056L107.344 56H104.32L102.952 51.992H95.68L94.288 56H91.264ZM96.496 49.472H102.088L98.92 40.112H99.712L96.496 49.472ZM109.201 60.8V43.016H111.793V45.704L111.481 45.08C111.961 44.344 112.601 43.768 113.401 43.352C114.201 42.936 115.113 42.728 116.137 42.728C117.369 42.728 118.473 43.024 119.449 43.616C120.441 44.208 121.217 45.016 121.777 46.04C122.353 47.064 122.641 48.216 122.641 49.496C122.641 50.776 122.353 51.928 121.777 52.952C121.217 53.976 120.449 54.792 119.473 55.4C118.497 55.992 117.385 56.288 116.137 56.288C115.129 56.288 114.209 56.08 113.377 55.664C112.561 55.248 111.929 54.648 111.481 53.864L111.913 53.36V60.8H109.201ZM115.873 53.768C116.641 53.768 117.321 53.584 117.913 53.216C118.505 52.848 118.969 52.344 119.305 51.704C119.657 51.048 119.833 50.312 119.833 49.496C119.833 48.68 119.657 47.952 119.305 47.312C118.969 46.672 118.505 46.168 117.913 45.8C117.321 45.432 116.641 45.248 115.873 45.248C115.121 45.248 114.441 45.432 113.833 45.8C113.241 46.168 112.769 46.672 112.417 47.312C112.081 47.952 111.913 48.68 111.913 49.496C111.913 50.312 112.081 51.048 112.417 51.704C112.769 52.344 113.241 52.848 113.833 53.216C114.441 53.584 115.121 53.768 115.873 53.768ZM125.279 60.8V43.016H127.871V45.704L127.559 45.08C128.039 44.344 128.679 43.768 129.479 43.352C130.279 42.936 131.191 42.728 132.215 42.728C133.447 42.728 134.551 43.024 135.527 43.616C136.519 44.208 137.295 45.016 137.855 46.04C138.431 47.064 138.719 48.216 138.719 49.496C138.719 50.776 138.431 51.928 137.855 52.952C137.295 53.976 136.527 54.792 135.551 55.4C134.575 55.992 133.463 56.288 132.215 56.288C131.207 56.288 130.287 56.08 129.455 55.664C128.639 55.248 128.007 54.648 127.559 53.864L127.991 53.36V60.8H125.279ZM131.951 53.768C132.719 53.768 133.399 53.584 133.991 53.216C134.583 52.848 135.047 52.344 135.383 51.704C135.735 51.048 135.911 50.312 135.911 49.496C135.911 48.68 135.735 47.952 135.383 47.312C135.047 46.672 134.583 46.168 133.991 45.8C133.399 45.432 132.719 45.248 131.951 45.248C131.199 45.248 130.519 45.432 129.911 45.8C129.319 46.168 128.847 46.672 128.495 47.312C128.159 47.952 127.991 48.68 127.991 49.496C127.991 50.312 128.159 51.048 128.495 51.704C128.847 52.344 129.319 52.848 129.911 53.216C130.519 53.584 131.199 53.768 131.951 53.768ZM152.081 56.288C150.961 56.288 149.921 56.08 148.961 55.664C148.001 55.232 147.185 54.648 146.513 53.912C145.841 53.176 145.345 52.328 145.025 51.368L147.425 50.36C147.857 51.464 148.489 52.312 149.321 52.904C150.153 53.496 151.113 53.792 152.201 53.792C152.841 53.792 153.401 53.696 153.881 53.504C154.361 53.296 154.729 53.008 154.985 52.64C155.257 52.272 155.393 51.848 155.393 51.368C155.393 50.712 155.209 50.192 154.841 49.808C154.473 49.424 153.929 49.12 153.209 48.896L149.849 47.84C148.505 47.424 147.481 46.792 146.777 45.944C146.073 45.08 145.721 44.072 145.721 42.92C145.721 41.912 145.969 41.032 146.465 40.28C146.961 39.512 147.641 38.912 148.505 38.48C149.385 38.048 150.385 37.832 151.505 37.832C152.577 37.832 153.553 38.024 154.433 38.408C155.313 38.776 156.065 39.288 156.689 39.944C157.329 40.6 157.793 41.36 158.081 42.224L155.729 43.256C155.377 42.312 154.825 41.584 154.073 41.072C153.337 40.56 152.481 40.304 151.505 40.304C150.913 40.304 150.393 40.408 149.945 40.616C149.497 40.808 149.145 41.096 148.889 41.48C148.649 41.848 148.529 42.28 148.529 42.776C148.529 43.352 148.713 43.864 149.081 44.312C149.449 44.76 150.009 45.096 150.761 45.32L153.881 46.304C155.305 46.736 156.377 47.36 157.097 48.176C157.817 48.976 158.177 49.976 158.177 51.176C158.177 52.168 157.913 53.048 157.385 53.816C156.873 54.584 156.161 55.192 155.249 55.64C154.337 56.072 153.281 56.288 152.081 56.288ZM166.708 56.144C165.348 56.144 164.292 55.76 163.54 54.992C162.788 54.224 162.412 53.144 162.412 51.752V45.464H160.132V43.016H160.492C161.1 43.016 161.572 42.84 161.908 42.488C162.244 42.136 162.412 41.656 162.412 41.048V40.04H165.124V43.016H168.076V45.464H165.124V51.632C165.124 52.08 165.196 52.464 165.34 52.784C165.484 53.088 165.716 53.328 166.036 53.504C166.356 53.664 166.772 53.744 167.284 53.744C167.412 53.744 167.556 53.736 167.716 53.72C167.876 53.704 168.028 53.688 168.172 53.672V56C167.948 56.032 167.7 56.064 167.428 56.096C167.156 56.128 166.916 56.144 166.708 56.144ZM176.848 56.288C175.6 56.288 174.456 55.992 173.416 55.4C172.392 54.808 171.576 54 170.968 52.976C170.36 51.952 170.056 50.792 170.056 49.496C170.056 48.184 170.36 47.024 170.968 46.016C171.576 44.992 172.392 44.192 173.416 43.616C174.44 43.024 175.584 42.728 176.848 42.728C178.128 42.728 179.272 43.024 180.28 43.616C181.304 44.192 182.112 44.992 182.704 46.016C183.312 47.024 183.616 48.184 183.616 49.496C183.616 50.808 183.312 51.976 182.704 53C182.096 54.024 181.28 54.832 180.256 55.424C179.232 56 178.096 56.288 176.848 56.288ZM176.848 53.768C177.616 53.768 178.296 53.584 178.888 53.216C179.48 52.848 179.944 52.344 180.28 51.704C180.632 51.048 180.808 50.312 180.808 49.496C180.808 48.68 180.632 47.952 180.28 47.312C179.944 46.672 179.48 46.168 178.888 45.8C178.296 45.432 177.616 45.248 176.848 45.248C176.096 45.248 175.416 45.432 174.808 45.8C174.216 46.168 173.744 46.672 173.392 47.312C173.056 47.952 172.888 48.68 172.888 49.496C172.888 50.312 173.056 51.048 173.392 51.704C173.744 52.344 174.216 52.848 174.808 53.216C175.416 53.584 176.096 53.768 176.848 53.768ZM186.264 56V43.016H188.856V45.632L188.616 45.248C188.904 44.4 189.368 43.792 190.008 43.424C190.648 43.04 191.416 42.848 192.312 42.848H193.104V45.32H191.976C191.08 45.32 190.352 45.6 189.792 46.16C189.248 46.704 188.976 47.488 188.976 48.512V56H186.264ZM201.055 56.288C199.759 56.288 198.607 55.992 197.599 55.4C196.607 54.792 195.831 53.976 195.271 52.952C194.711 51.912 194.431 50.752 194.431 49.472C194.431 48.16 194.711 47 195.271 45.992C195.847 44.984 196.615 44.192 197.575 43.616C198.535 43.024 199.623 42.728 200.839 42.728C201.815 42.728 202.687 42.896 203.455 43.232C204.223 43.568 204.871 44.032 205.399 44.624C205.927 45.2 206.327 45.864 206.599 46.616C206.887 47.368 207.031 48.168 207.031 49.016C207.031 49.224 207.023 49.44 207.007 49.664C206.991 49.888 206.959 50.096 206.911 50.288H196.567V48.128H205.375L204.079 49.112C204.239 48.328 204.183 47.632 203.911 47.024C203.655 46.4 203.255 45.912 202.711 45.56C202.183 45.192 201.559 45.008 200.839 45.008C200.119 45.008 199.479 45.192 198.919 45.56C198.359 45.912 197.927 46.424 197.623 47.096C197.319 47.752 197.199 48.552 197.263 49.496C197.183 50.376 197.303 51.144 197.623 51.8C197.959 52.456 198.423 52.968 199.015 53.336C199.623 53.704 200.311 53.888 201.079 53.888C201.863 53.888 202.527 53.712 203.071 53.36C203.631 53.008 204.071 52.552 204.391 51.992L206.599 53.072C206.343 53.68 205.943 54.232 205.399 54.728C204.871 55.208 204.231 55.592 203.479 55.88C202.743 56.152 201.935 56.288 201.055 56.288Z" fill="white"/>
</svg>
