<svg width="255" height="12" viewBox="0 0 255 12" fill="none" xmlns="http://www.w3.org/2000/svg">
<path d="M1 4.77344H0V6.77344H1V5.77344V4.77344ZM255 5.77344L245 -6.53267e-05V11.5469L255 5.77344ZM4.02381 6.77344H5.02381V4.77344H4.02381V5.77344V6.77344ZM10.0714 4.77344H9.07143V6.77344H10.0714V5.77344V4.77344ZM16.119 6.77344H17.119V4.77344H16.119V5.77344V6.77344ZM22.1667 4.77344H21.1667V6.77344H22.1667V5.77344V4.77344ZM28.2143 6.77344H29.2143V4.77344H28.2143V5.77344V6.77344ZM34.2619 4.77344H33.2619V6.77344H34.2619V5.77344V4.77344ZM40.3095 6.77344H41.3095V4.77344H40.3095V5.77344V6.77344ZM46.3571 4.77344H45.3571V6.77344H46.3571V5.77344V4.77344ZM52.4048 6.77344H53.4048V4.77344H52.4048V5.77344V6.77344ZM58.4524 4.77344H57.4524V6.77344H58.4524V5.77344V4.77344ZM64.5 6.77344H65.5V4.77344H64.5V5.77344V6.77344ZM70.5476 4.77344H69.5476V6.77344H70.5476V5.77344V4.77344ZM76.5952 6.77344H77.5952V4.77344H76.5952V5.77344V6.77344ZM82.6429 4.77344H81.6429V6.77344H82.6429V5.77344V4.77344ZM88.6905 6.77344H89.6905V4.77344H88.6905V5.77344V6.77344ZM94.7381 4.77344H93.7381V6.77344H94.7381V5.77344V4.77344ZM100.786 6.77344H101.786V4.77344H100.786V5.77344V6.77344ZM106.833 4.77344H105.833V6.77344H106.833V5.77344V4.77344ZM112.881 6.77344H113.881V4.77344H112.881V5.77344V6.77344ZM118.929 4.77344H117.929V6.77344H118.929V5.77344V4.77344ZM124.976 6.77344H125.976V4.77344H124.976V5.77344V6.77344ZM131.024 4.77344H130.024V6.77344H131.024V5.77344V4.77344ZM137.071 6.77344H138.071V4.77344H137.071V5.77344V6.77344ZM143.119 4.77344H142.119V6.77344H143.119V5.77344V4.77344ZM149.167 6.77344H150.167V4.77344H149.167V5.77344V6.77344ZM155.214 4.77344H154.214V6.77344H155.214V5.77344V4.77344ZM161.262 6.77344H162.262V4.77344H161.262V5.77344V6.77344ZM167.31 4.77344H166.31V6.77344H167.31V5.77344V4.77344ZM173.357 6.77344H174.357V4.77344H173.357V5.77344V6.77344ZM179.405 4.77344H178.405V6.77344H179.405V5.77344V4.77344ZM185.452 6.77344H186.452V4.77344H185.452V5.77344V6.77344ZM191.5 4.77344H190.5V6.77344H191.5V5.77344V4.77344ZM197.548 6.77344H198.548V4.77344H197.548V5.77344V6.77344ZM203.595 4.77344H202.595V6.77344H203.595V5.77344V4.77344ZM209.643 6.77344H210.643V4.77344H209.643V5.77344V6.77344ZM215.691 4.77344H214.691V6.77344H215.691V5.77344V4.77344ZM221.738 6.77344H222.738V4.77344H221.738V5.77344V6.77344ZM227.786 4.77344H226.786V6.77344H227.786V5.77344V4.77344ZM233.833 6.77344H234.833V4.77344H233.833V5.77344V6.77344ZM239.881 4.77344H238.881V6.77344H239.881V5.77344V4.77344ZM245.929 6.77344H246.929V4.77344H245.929V5.77344V6.77344ZM251.976 4.77344H250.976V6.77344H251.976V5.77344V4.77344ZM1 5.77344V6.77344H4.02381V5.77344V4.77344H1V5.77344ZM10.0714 5.77344V6.77344H16.119V5.77344V4.77344H10.0714V5.77344ZM22.1667 5.77344V6.77344H28.2143V5.77344V4.77344H22.1667V5.77344ZM34.2619 5.77344V6.77344H40.3095V5.77344V4.77344H34.2619V5.77344ZM46.3571 5.77344V6.77344H52.4048V5.77344V4.77344H46.3571V5.77344ZM58.4524 5.77344V6.77344H64.5V5.77344V4.77344H58.4524V5.77344ZM70.5476 5.77344V6.77344H76.5952V5.77344V4.77344H70.5476V5.77344ZM82.6429 5.77344V6.77344H88.6905V5.77344V4.77344H82.6429V5.77344ZM94.7381 5.77344V6.77344H100.786V5.77344V4.77344H94.7381V5.77344ZM106.833 5.77344V6.77344H112.881V5.77344V4.77344H106.833V5.77344ZM118.929 5.77344V6.77344H124.976V5.77344V4.77344H118.929V5.77344ZM131.024 5.77344V6.77344H137.071V5.77344V4.77344H131.024V5.77344ZM143.119 5.77344V6.77344H149.167V5.77344V4.77344H143.119V5.77344ZM155.214 5.77344V6.77344H161.262V5.77344V4.77344H155.214V5.77344ZM167.31 5.77344V6.77344H173.357V5.77344V4.77344H167.31V5.77344ZM179.405 5.77344V6.77344H185.452V5.77344V4.77344H179.405V5.77344ZM191.5 5.77344V6.77344H197.548V5.77344V4.77344H191.5V5.77344ZM203.595 5.77344V6.77344H209.643V5.77344V4.77344H203.595V5.77344ZM215.691 5.77344V6.77344H221.738V5.77344V4.77344H215.691V5.77344ZM227.786 5.77344V6.77344H233.833V5.77344V4.77344H227.786V5.77344ZM239.881 5.77344V6.77344H245.929V5.77344V4.77344H239.881V5.77344Z" fill="#34A853"/>
</svg>
